<svg width="30" height="30" viewBox="0 0 30 30" fill="none" xmlns="http://www.w3.org/2000/svg">
<path d="M10.0343 23.2852C10.0343 23.4023 9.89516 23.4961 9.71976 23.4961C9.52016 23.5137 9.38105 23.4199 9.38105 23.2852C9.38105 23.168 9.52016 23.0742 9.69556 23.0742C9.87702 23.0566 10.0343 23.1504 10.0343 23.2852ZM8.15323 23.0215C8.11089 23.1387 8.23185 23.2734 8.41331 23.3086C8.57056 23.3672 8.75202 23.3086 8.78831 23.1914C8.8246 23.0742 8.70968 22.9395 8.52823 22.8867C8.37097 22.8457 8.19556 22.9043 8.15323 23.0215ZM10.8266 22.9219C10.6512 22.9629 10.5302 23.0742 10.5484 23.209C10.5665 23.3262 10.7238 23.4023 10.9052 23.3613C11.0806 23.3203 11.2016 23.209 11.1835 23.0918C11.1653 22.9805 11.002 22.9043 10.8266 22.9219ZM14.8065 0.46875C6.41734 0.46875 0 6.63867 0 14.7656C0 21.2637 4.22177 26.8242 10.252 28.7813C11.0262 28.916 11.2984 28.4531 11.2984 28.0723C11.2984 27.709 11.2802 25.7051 11.2802 24.4746C11.2802 24.4746 7.04637 25.3535 6.15726 22.7285C6.15726 22.7285 5.46774 21.0234 4.47581 20.584C4.47581 20.584 3.09073 19.6641 4.57258 19.6816C4.57258 19.6816 6.07863 19.7988 6.90726 21.1934C8.23185 23.4551 10.4516 22.8047 11.3165 22.418C11.4556 21.4805 11.8488 20.8301 12.2843 20.4434C8.90323 20.0801 5.49194 19.6055 5.49194 13.9687C5.49194 12.3574 5.95161 11.5488 6.91935 10.5176C6.7621 10.1367 6.24798 8.56641 7.07661 6.53906C8.34073 6.1582 11.25 8.12109 11.25 8.12109C12.4597 7.79297 13.7601 7.62305 15.0484 7.62305C16.3367 7.62305 17.6371 7.79297 18.8468 8.12109C18.8468 8.12109 21.756 6.15234 23.0202 6.53906C23.8488 8.57227 23.3347 10.1367 23.1774 10.5176C24.1452 11.5547 24.7379 12.3633 24.7379 13.9687C24.7379 19.623 21.1754 20.0742 17.7944 20.4434C18.3508 20.9062 18.8226 21.7852 18.8226 23.1621C18.8226 25.1367 18.8044 27.5801 18.8044 28.0605C18.8044 28.4414 19.0827 28.9043 19.8508 28.7695C25.8992 26.8242 30 21.2637 30 14.7656C30 6.63867 23.1956 0.46875 14.8065 0.46875ZM5.87903 20.6777C5.8004 20.7363 5.81855 20.8711 5.92137 20.9824C6.01815 21.0762 6.15726 21.1172 6.23589 21.041C6.31452 20.9824 6.29637 20.8477 6.19355 20.7363C6.09677 20.6426 5.95766 20.6016 5.87903 20.6777ZM5.22581 20.2031C5.18347 20.2793 5.24395 20.373 5.36492 20.4316C5.46169 20.4902 5.58266 20.4727 5.625 20.3906C5.66734 20.3145 5.60685 20.2207 5.48589 20.1621C5.36492 20.127 5.26815 20.1445 5.22581 20.2031ZM7.18548 22.2891C7.08871 22.3652 7.125 22.541 7.26411 22.6523C7.40323 22.7871 7.57863 22.8047 7.65726 22.7109C7.73589 22.6348 7.6996 22.459 7.57863 22.3477C7.44556 22.2129 7.26411 22.1953 7.18548 22.2891ZM6.49597 21.4277C6.39919 21.4863 6.39919 21.6387 6.49597 21.7734C6.59274 21.9082 6.75605 21.9668 6.83468 21.9082C6.93145 21.832 6.93145 21.6797 6.83468 21.5449C6.75 21.4102 6.59274 21.3516 6.49597 21.4277Z" fill="white"/>
</svg>
